:SAMPLES-PER-SECOND 30
:FULLY-SPECIFIED
:DEGREES
588
root  -28.5077 38.3174 -4.4213 -68.3479 -86.0918 68.6682
RightUpLeg  7.37637 -6.94927 -17.7693
RightLeg  13.5376 9.39381 -0.325736
RightFoot  -20.4812 0.65 9.84106
RightToes  -4.65663e-010 0 -3.6325e-017
Spine  10.5014 0.743748 5.84857
Spine1  5.00179 1.55964 -1.94855
HEad  -19.6115 7.92357 -3.18634
LeftShoulder1  -0.474324 4.728 -32.5901
LeftArm  9.80893 9.5488 -39.0923
LeftForeArm  20.4513 -21.4526 -4.30671
LeftHand  -0.0819877 8.27336 -1.3634
RightShoulder  -0.840923 -5.94155 27.8934
RightArm  16.383 2.34728 46.6336
RightForeArm  19.1146 52.1718 12.9904
RightHand  -0.146645 3.57101 -2.13407
LeftUpLeg  -23.9298 6.51682 3.40193
LeftLeg  21.2345 -0.976142 -0.09999
LeftFoot  0.218344 0.481376 -4.69602
LeftToes  8.74931e-010 -1.05764e-010 1.2659e-011
589
root  -29.3844 37.9845 -3.86696 -58.6158 -84.7914 58.2251
RightUpLeg  9.71805 -5.28844 -19.2912
RightLeg  14.3356 6.98829 -0.667774
RightFoot  -21.9044 0.886361 11.1555
RightToes  -4.65663e-010 0 -3.6325e-017
Spine  11.2603 1.08582 1.83918
Spine1  5.17166 1.51566 -1.2074
HEad  -20.0341 6.58683 -2.17164
LeftShoulder1  -0.536358 4.86874 -33.1505
LeftArm  7.66838 9.96221 -37.9967
LeftForeArm  22.7418 -18.5766 -5.509
LeftHand  -0.0778501 7.85813 -1.08279
RightShoulder  -0.75222 -5.70311 27.5603
RightArm  16.4433 2.50696 47.3753
RightForeArm  18.444 48.1695 11.1848
RightHand  -0.274878 4.51711 -3.50924
LeftUpLeg  -24.6861 6.24445 1.6598
LeftLeg  26.5463 -1.89611 -0.688351
LeftFoot  -2.48665 0.241232 -2.94883
LeftToes  8.74931e-010 -1.05764e-010 1.2659e-011
590
root  -30.2853 37.6998 -3.30593 -55.1225 -83.0546 54.3035
RightUpLeg  11.1808 -1.91741 -20.8395
RightLeg  16.4181 2.33759 -0.733154
RightFoot  -22.6407 1.16206 13.28
RightToes  -4.65663e-010 0 -3.6325e-017
Spine  11.3588 1.39589 -1.35582
Spine1  5.79588 1.81711 -2.18228
HEad  -20.284 4.76842 -0.639589
LeftShoulder1  -0.519561 4.82282 -33.2388
LeftArm  5.05179 9.68373 -36.8063
LeftForeArm  26.4334 -15.4008 -7.05914
LeftHand  -0.209295 10.7839 -3.18434
RightShoulder  -0.696993 -5.55524 27.3117
RightArm  16.1746 2.0045 48.7161
RightForeArm  18.0068 42.5929 9.10697
RightHand  -0.305791 4.66119 -3.77136
LeftUpLeg  -24.7008 5.77692 -0.437907
LeftLeg  30.246 -2.54406 -1.25653
LeftFoot  -5.03138 0.155693 -2.26379
LeftToes  8.74931e-010 -1.05764e-010 1.2659e-011
591
root  -31.1141 37.589 -2.74065 -57.1431 -82.5063 56.5444
RightUpLeg  10.2486 1.7412 -21.4622
RightLeg  20.6107 -2.29552 -1.03837
RightFoot  -21.4714 1.25224 15.8499
RightToes  -4.65663e-010 0 -3.6325e-017
Spine  11.1288 1.73741 -2.98028
Spine1  6.05842 2.52793 -4.71608
HEad  -19.4844 2.98672 0.569824
LeftShoulder1  -0.474771 4.70162 -33.465
LeftArm  0.36802 9.46676 -35.357
LeftForeArm  31.6986 -11.3737 -8.43016
LeftHand  -0.184467 9.85807 -3.15899
RightShoulder  -0.750938 -5.68423 27.78
RightArm  17.976 2.18804 49.7194
RightForeArm  17.0808 35.5054 6.99967
RightHand  -0.0797807 3.99327 -1.281
LeftUpLeg  -24.5739 6.6077 -1.92832
LeftLeg  32.5367 -3.04247 -1.72796
LeftFoot  -7.49 0.092167 -1.41838
LeftToes  8.74931e-010 -1.05764e-010 1.2659e-011
592
root  -31.9094 37.6744 -2.17925 -53.2917 -82.1405 53.0117
RightUpLeg  7.70657 2.16726 -21.4043
RightLeg  27.2818 -4.68793 -2.89532
RightFoot  -17.1126 0.668907 13.9593
RightToes  -4.65663e-010 0 -3.6325e-017
Spine  11.171 1.66266 -4.07966
Spine1  5.53797 2.58311 -5.93935
HEad  -18.922 1.7875 0.797401
LeftShoulder1  -0.538092 4.83152 -34.3717
LeftArm  -3.09044 8.83633 -33.9592
LeftForeArm  35.1958 -7.73463 -8.77438
LeftHand  -0.270774 11.3289 -3.89728
RightShoulder  -0.832745 -5.87296 28.5497
RightArm  21.3148 2.41346 50.4828
RightForeArm  13.1372 28.1976 5.36035
RightHand  -0.0892813 4.12255 -1.3664
LeftUpLeg  -23.7721 5.71377 -2.75232
LeftLeg  33.1206 -2.71874 -1.54877
LeftFoot  -9.06894 0.0686221 -0.723243
LeftToes  8.74931e-010 -1.05764e-010 1.2659e-011
593
root  -32.7465 37.9111 -1.66016 -46.0641 -82.2393 45.8811
RightUpLeg  4.35594 2.28342 -19.9979
RightLeg  34.7589 -6.27656 -4.85091
RightFoot  -10.7489 -0.149023 7.21823
RightToes  -4.65663e-010 0 -3.6325e-017
Spine  10.6775 1.50027 -4.55768
Spine1  5.84027 2.47467 -5.94543
HEad  -19.0825 0.643584 1.12572
LeftShoulder1  -0.543842 4.85309 -34.1453
LeftArm  -6.01678 8.59522 -34.7277
LeftForeArm  35.9785 -5.23759 -7.78389
LeftHand  -0.161844 10.6034 -2.20645
RightShoulder  -0.789628 -5.75321 28.4763
RightArm  24.2538 1.37363 51.4072
RightForeArm  10.2033 22.89 4.47823
RightHand  -0.0690752 3.97795 -1.09424
LeftUpLeg  -22.1202 4.79132 -2.68689
LeftLeg  32.597 -2.53817 -1.38988
LeftFoot  -10.2874 0.0646374 -0.365788
LeftToes  8.74931e-010 -1.05764e-010 1.2659e-011
594
root  -33.4615 38.193 -1.28564 -38.576 -82.2602 38.6288
RightUpLeg  0.810364 2.38744 -18.1411
RightLeg  40.5031 -3.56242 -3.50451
RightFoot  -10.8677 -0.106991 8.04732
RightToes  -4.65663e-010 0 -3.6325e-017
Spine  10.4206 1.50146 -5.5637
Spine1  6.14948 2.23507 -5.53051
HEad  -19.1689 0.107989 0.93039
LeftShoulder1  -0.56183 4.88374 -34.5357
LeftArm  -6.28973 8.13306 -35.0151
LeftForeArm  35.5853 -4.52385 -7.53762
LeftHand  -0.0870149 10.1271 -0.790425
RightShoulder  -0.84153 -5.87987 28.8194
RightArm  26.3045 -0.122678 50.8518
RightForeArm  10.3999 20.3753 4.72006
RightHand  0.0402458 3.13424 0.291172
LeftUpLeg  -20.4453 4.21522 -2.35964
LeftLeg  31.2238 -2.73246 -1.42662
LeftFoot  -10.899 0.0668589 -0.343328
LeftToes  8.74931e-010 -1.05764e-010 1.2659e-011
595
root  -34.2085 38.5311 -0.942293 -29.3006 -82.079 29.2836
RightUpLeg  -2.40848 1.94133 -15.8178
RightLeg  44.7815 -0.444341 -0.799385
RightFoot  -11.1099 -0.0952537 9.71784
RightToes  -4.65663e-010 0 -3.6325e-017
Spine  10.1693 1.11218 -6.62624
Spine1  6.63918 1.46702 -4.44938
HEad  -19.365 0.331152 1.02418
LeftShoulder1  -0.654721 5.11445 -34.4863
LeftArm  -6.25661 7.71908 -35.6278
LeftForeArm  35.2556 -5.05364 -7.6358
LeftHand  -0.13461 10.5711 -1.27287
RightShoulder  -0.88935 -5.97215 29.4144
RightArm  28.9014 -1.71008 49.9527
RightForeArm  10.6577 19.4216 5.18014
RightHand  -0.00662619 2.60764 -0.300143
LeftUpLeg  -18.1561 3.90341 -1.74396
LeftLeg  29.3176 -3.23541 -1.61382
LeftFoot  -11.2531 0.0676188 -0.157353
LeftToes  8.74931e-010 -1.05764e-010 1.2659e-011
596
root  -34.9672 38.8956 -0.629225 -21.8716 -81.7873 21.981
RightUpLeg  -6.09804 1.09797 -13.5132
RightLeg  48.0579 0.382764 0.105271
RightFoot  -11.387 -0.0736183 10.0724
RightToes  -4.65663e-010 0 -3.6325e-017
Spine  9.7505 0.715383 -7.62139
Spine1  6.86561 0.766075 -3.57148
HEad  -19.1255 0.602024 0.989071
LeftShoulder1  -0.678101 5.19904 -33.8303
LeftArm  -5.59927 7.63809 -36.5761
LeftForeArm  34.813 -6.95691 -7.98052
LeftHand  -0.300193 11.3512 -3.84385
RightShoulder  -1.02398 -6.29101 30.1956
RightArm  31.4631 -3.68201 48.5602
RightForeArm  10.7235 19.7763 5.16273
RightHand  0.00214016 3.02997 -0.196989
LeftUpLeg  -15.7006 3.26608 -1.23689
LeftLeg  26.6774 -3.38742 -1.49423
LeftFoot  -11.2731 0.0677175 -0.11133
LeftToes  8.74931e-010 -1.05764e-010 1.2659e-011
597
root  -35.7345 39.2386 -0.308822 -17.8187 -81.9219 17.937
RightUpLeg  -9.99981 0.396366 -11.4726
RightLeg  49.9837 -0.301501 -0.737045
RightFoot  -11.2812 -0.0819629 9.71233
RightToes  -4.65663e-010 0 -3.6325e-017
Spine  9.69705 0.590788 -8.27597
Spine1  6.12448 0.371938 -2.65809
HEad  -18.277 0.841774 1.18547
LeftShoulder1  -0.664302 5.16222 -33.8933
LeftArm  -3.58232 7.57967 -36.8789
LeftForeArm  32.0575 -9.02747 -8.30409
LeftHand  -0.0299773 7.29593 0.165319
RightShoulder  -0.997283 -6.24678 29.8025
RightArm  31.8391 -6.90847 47.7455
RightForeArm  10.7232 20.6204 4.83882
RightHand  0.00556647 3.22671 -0.162493
LeftUpLeg  -12.9022 3.53099 -0.884212
LeftLeg  23.7724 -3.80379 -1.49383
LeftFoot  -11.2178 0.0673298 0.0473457
LeftToes  8.74931e-010 -1.05764e-010 1.2659e-011
598
root  -36.4854 39.5078 0.00571245 -14.9255 -82.3309 14.7145
RightUpLeg  -13.4034 -0.314415 -9.55091
RightLeg  50.1069 -1.28189 -1.98995
RightFoot  -11.37 -0.0749017 9.26465
RightToes  -4.65663e-010 0 -3.6325e-017
Spine  9.58364 0.389552 -8.69896
Spine1  6.19799 -0.0030022 -2.06241
HEad  -17.8061 1.05293 1.95402
LeftShoulder1  -0.723184 5.3111 -33.8453
LeftArm  -0.844887 6.97651 -37.7116
LeftForeArm  28.7341 -11.8522 -7.99102
LeftHand  -0.134251 10.4132 -1.76726
RightShoulder  -0.99536 -6.25164 29.666
RightArm  32.0218 -8.943 46.953
RightForeArm  9.96957 21.1639 4.71202
RightHand  0.0179911 3.25838 -0.00965779
LeftUpLeg  -9.86622 3.50028 -0.5882
LeftLeg  21.1144 -3.5641 -1.13423
LeftFoot  -11.3185 0.0678275 0.270041
LeftToes  8.74931e-010 -1.05764e-010 1.2659e-011
599
root  -37.2357 39.7144 0.334355 -14.281 -82.8423 13.6433
RightUpLeg  -16.3619 -0.395853 -7.99105
RightLeg  48.2439 -1.6797 -2.34546
RightFoot  -11.3938 -0.0729662 9.61008
RightToes  -4.65663e-010 0 -3.6325e-017
Spine  9.61904 0.18516 -8.99569
Spine1  6.18825 -0.349042 -1.51386
HEad  -17.1406 1.70178 1.92983
LeftShoulder1  -0.722475 5.29735 -34.1102
LeftArm  1.01922 5.82535 -38.3881
LeftForeArm  26.0891 -13.857 -7.3724
LeftHand  -0.127322 10.2664 -1.6093
RightShoulder  -0.97363 -6.21073 29.4058
RightArm  31.3271 -10.4971 46.1957
RightForeArm  9.99859 21.5527 4.59688
RightHand  -0.0501557 2.57336 -0.922527
LeftUpLeg  -6.64492 4.03855 -0.686491
LeftLeg  18.3113 -3.61249 -0.724083
LeftFoot  -11.3481 0.0682385 0.780438
LeftToes  8.74931e-010 -1.05764e-010 1.2659e-011
600
root  -37.9849 39.8096 0.636359 -13.1193 -83.0739 12.2828
RightUpLeg  -19.0808 -0.621802 -6.60553
RightLeg  44.5398 -1.36799 -1.75918
RightFoot  -10.9973 -0.10321 9.4337
RightToes  -4.65663e-010 0 -3.6325e-017
Spine  10.0051 -0.230505 -9.18689
Spine1  5.43005 -0.841169 -1.27769
HEad  -16.9223 2.26038 1.54744
LeftShoulder1  -0.736077 5.3467 -33.7719
LeftArm  2.41341 4.8154 -39.3774
LeftForeArm  23.8744 -15.7877 -6.55042
LeftHand  -0.0803903 9.70762 -0.701038
RightShoulder  -1.0194 -6.3132 29.7379
RightArm  30.9764 -11.377 45.2578
RightForeArm  9.65776 21.4042 4.63402
RightHand  -0.070962 3.01799 -1.21669
LeftUpLeg  -4.22587 4.79559 -0.742268
LeftLeg  16.5688 -4.11967 -0.578773
LeftFoot  -11.7525 0.0762308 1.5069
LeftToes  8.74931e-010 -1.05764e-010 1.2659e-011
